<svg width="20" height="20" viewBox="0 0 20 20" fill="none" xmlns="http://www.w3.org/2000/svg">
<circle cx="10" cy="10" r="10" fill="white"/>
<path d="M10 2.38098C14.2078 2.38103 17.6191 5.79227 17.6191 10.0001C17.6191 14.2079 14.2078 17.6192 10 17.6193C5.79215 17.6193 2.38091 14.208 2.38086 10.0001C2.38086 5.79224 5.79212 2.38098 10 2.38098ZM10 5.2384C7.37007 5.2384 5.23828 7.37019 5.23828 10.0001C5.23835 12.63 7.37011 14.7618 10 14.7618C12.6299 14.7618 14.7617 12.63 14.7617 10.0001C14.7617 7.37019 12.6299 5.2384 10 5.2384Z" fill="#E1251F"/>
<rect x="0.476074" y="8.33331" width="19.0476" height="3.33333" fill="#000F9F"/>
</svg>
